<svg height="511.99998pt" viewBox="1 1 511.99998 511.99998" width="511.99998pt" xmlns="http://www.w3.org/2000/svg"><path d="m256 16c-132.546875 0-240 107.453125-240 240s107.453125 240 240 240 240-107.453125 240-240-107.453125-240-240-240zm-32 336v-192l112 96zm0 0" fill="#ffeb99"/><path d="m224 352 112-96-112-96zm0 0" fill="#ff9478"/><g fill="#3e3d42"><path d="m256 512c-141.386719 0-256-114.617188-256-256s114.613281-256 256-256 256 114.613281 256 256c-.167969 141.316406-114.683594 255.832031-256 256zm0-480c-123.710938 0-224 100.289062-224 224s100.289062 224 224 224 224-100.289062 224-224c-.132812-123.65625-100.34375-223.867188-224-224zm0 0"/><path d="m224 368c-8.835938 0-16-7.164062-16-16v-192c0-8.835938 7.164062-16 16-16 3.820312 0 7.515625 1.367188 10.414062 3.855469l112 96c6.707032 5.753906 7.480469 15.855469 1.726563 22.5625-.527344.617187-1.105469 1.195312-1.726563 1.726562l-112 96c-2.898437 2.488281-6.59375 3.855469-10.414062 3.855469zm16-173.214844v122.429688l71.40625-61.214844zm0 0"/></g></svg>